<svg width="45" height="45" viewBox="0 0 45 45" fill="none" xmlns="http://www.w3.org/2000/svg">
<rect width="45" height="45" fill="#8D86C9"/>
<path fill-rule="evenodd" clip-rule="evenodd" d="M14.7502 22.5C14.7502 22.7569 14.8523 23.0033 15.034 23.185C15.2156 23.3667 15.462 23.4688 15.719 23.4688L26.9429 23.4688L22.7831 27.6266C22.693 27.7167 22.6216 27.8236 22.5728 27.9413C22.5241 28.059 22.499 28.1851 22.499 28.3125C22.499 28.4399 22.5241 28.566 22.5728 28.6837C22.6216 28.8014 22.693 28.9083 22.7831 28.9984C22.8732 29.0884 22.9801 29.1599 23.0978 29.2086C23.2155 29.2574 23.3416 29.2825 23.469 29.2825C23.5963 29.2825 23.7225 29.2574 23.8402 29.2086C23.9578 29.1599 24.0648 29.0884 24.1548 28.9984L29.9673 23.1859C30.0576 23.0959 30.1291 22.989 30.178 22.8713C30.2268 22.7536 30.252 22.6274 30.252 22.5C30.252 22.3726 30.2268 22.2464 30.178 22.1287C30.1291 22.011 30.0576 21.9041 29.9673 21.8141L24.1548 16.0016C23.9729 15.8197 23.7262 15.7175 23.469 15.7175C23.2117 15.7175 22.965 15.8197 22.7831 16.0016C22.6012 16.1835 22.499 16.4303 22.499 16.6875C22.499 16.9448 22.6012 17.1915 22.7831 17.3734L26.9429 21.5313L15.719 21.5313C15.462 21.5313 15.2156 21.6333 15.034 21.815C14.8523 21.9967 14.7502 22.2431 14.7502 22.5Z" fill="white"/>
</svg>
