<svg width="45" height="45" viewBox="0 0 45 45" fill="none" xmlns="http://www.w3.org/2000/svg">
<rect width="45" height="45" fill="#8D86C9"/>
<path fill-rule="evenodd" clip-rule="evenodd" d="M30.2498 22.5C30.2498 22.7569 30.1477 23.0033 29.966 23.185C29.7844 23.3667 29.538 23.4688 29.281 23.4688L18.0571 23.4688L22.2169 27.6266C22.307 27.7167 22.3784 27.8236 22.4272 27.9413C22.4759 28.059 22.501 28.1851 22.501 28.3125C22.501 28.4399 22.4759 28.566 22.4272 28.6837C22.3784 28.8014 22.307 28.9083 22.2169 28.9984C22.1268 29.0884 22.0199 29.1599 21.9022 29.2086C21.7845 29.2574 21.6584 29.2825 21.531 29.2825C21.4037 29.2825 21.2775 29.2574 21.1598 29.2086C21.0422 29.1599 20.9352 29.0884 20.8452 28.9984L15.0327 23.1859C14.9424 23.0959 14.8709 22.989 14.822 22.8713C14.7732 22.7536 14.748 22.6274 14.748 22.5C14.748 22.3726 14.7732 22.2464 14.822 22.1287C14.8709 22.011 14.9424 21.9041 15.0327 21.8141L20.8452 16.0016C21.0271 15.8197 21.2738 15.7175 21.531 15.7175C21.7883 15.7175 22.035 15.8197 22.2169 16.0016C22.3988 16.1835 22.501 16.4303 22.501 16.6875C22.501 16.9448 22.3988 17.1915 22.2169 17.3734L18.0571 21.5313L29.281 21.5313C29.538 21.5313 29.7844 21.6333 29.966 21.815C30.1477 21.9967 30.2498 22.2431 30.2498 22.5Z" fill="white"/>
</svg>
